<svg xmlns="http://www.w3.org/2000/svg" viewBox="0 0 1024 1024">
  <defs>
    <linearGradient id="bg" x1="128" y1="96" x2="896" y2="928" gradientUnits="userSpaceOnUse">
      <stop offset="0" stop-color="#fbfbff"/>
      <stop offset="1" stop-color="#eef0ff"/>
    </linearGradient>
    <filter id="shadow" x="-20%" y="-20%" width="140%" height="140%">
      <feDropShadow dx="0" dy="28" stdDeviation="34" flood-color="#25305f" flood-opacity=".18"/>
    </filter>
  </defs>
  <rect width="1024" height="1024" rx="232" fill="url(#bg)"/>
  <g filter="url(#shadow)">
    <path d="M260 468 512 256l252 212v278a42 42 0 0 1-42 42H302a42 42 0 0 1-42-42V468Z" fill="#ffffff"/>
    <path d="M214 492 512 240l298 252" fill="none" stroke="#515CA8" stroke-width="68" stroke-linecap="round" stroke-linejoin="round"/>
    <path d="M324 508v230h376V508" fill="none" stroke="#515CA8" stroke-width="56" stroke-linecap="round" stroke-linejoin="round"/>
  </g>
  <g transform="translate(512 556)">
    <circle r="170" fill="#ffffff"/>
    <path d="M0-178a178 178 0 0 1 154 89L72-36A86 86 0 0 0 0-86Z" fill="#fa5147"/>
    <path d="M154-89a178 178 0 0 1 0 178L72 36A86 86 0 0 0 72-36Z" fill="#f4c430"/>
    <path d="M154 89A178 178 0 0 1 0 178V86a86 86 0 0 0 72-50Z" fill="#47b56a"/>
    <path d="M0 178a178 178 0 0 1-154-89l82-53A86 86 0 0 0 0 86Z" fill="#35a0ee"/>
    <path d="M-154 89a178 178 0 0 1 0-178l82 53a86 86 0 0 0 0 72Z" fill="#7a62d7"/>
    <path d="M-154-89A178 178 0 0 1 0-178v92a86 86 0 0 0-72 50Z" fill="#eb5aa6"/>
    <circle r="72" fill="#515CA8"/>
    <circle r="34" fill="#ffffff"/>
  </g>
</svg>
